<svg fill="none" xmlns="http://www.w3.org/2000/svg" viewBox="0 0 36 36">
  <path d="M5.6 7.8l11.6 11.7 2.3-2.3L7.8 5.6 7 3 3 1 1 3l2 4 2.6.8z" fill="#99AAB5"/>
  <path d="M17.3 17.3L8 8.1c-.4-.5-.6-1-.4-1.3.3-.2.8 0 1.3.4l9.3 9.3c.4.4.6 1 .4 1.2-.3.3-.9 0-1.3-.4z" fill="#E1E8ED"/>
  <path d="M16.3 20.7l4.4-4.4c.8-.7 2-.7 2.6 0l11 11c.7.7.7 1.9 0 2.6l-4.4 4.4c-.7.7-1.9.7-2.6 0l-11-11c-.7-.7-.7-1.8 0-2.6zm-2.2-1.6l5-5c.6-.6 1.4-.6 2 0 .5.5.5 1.4 0 2l-5 5c-.6.5-1.5.5-2 0-.6-.6-.6-1.4 0-2z" fill="#DD2E44"/>
  <path d="M15.8 18l3.4-3.4c.4-.4 1-.6 1.2-.4.3.2 0 .8-.4 1.3l-3.3 3.3c-.5.5-1 .6-1.3.4-.2-.2 0-.8.4-1.3z" fill="#EA596E"/>
  <path d="M22 17.6a1 1 0 011.3 0l9.7 9.7a1 1 0 01-1.3 1.3L22 18.9a1 1 0 010-1.3zM17.6 22a1 1 0 011.3 0l9.7 9.7a1 1 0 01-1.3 1.3l-9.7-9.7a1 1 0 010-1.3zm1.7-2.9c.3-.4 1-.3 1.3 0l10.7 10.7c.4.4.4 1 0 1.4-.3.3-1 .3-1.3-.1L19.3 20.5c-.4-.4-.4-1 0-1.4z" fill="#A0041E"/>
  <path d="M3.2 1h-.3L1.1 3V3l.3.7 2.4-2.4-.6-.3z" fill="#66757F"/>
  <path d="M2.1 3.6l1.7-1.7 2.8 1.4-2.3 2.2-2.2-2z" fill="#E1E8ED"/>
</svg>
