<svg fill="none" xmlns="http://www.w3.org/2000/svg" viewBox="0 0 383 85">
  <path d="M61.9 1.1h17.2v82.2H61.9V1.1zm237.2 0h17.2v82.2h-17.2V1.1zM111.5 67.4V1.1h-18v82.2h36.7V67.4h-18.7zM233.4 1.1h-44.6V17h13.1v66.3h17.4V17h14.1V1.1zm26.2 66.3V48.7h23.1V33.4h-23.1V17h24.3V1.1h-41.2v82.2h42.7V67.4h-25.8zM366.5 1.1v41.8L347.6 1.1h-16.3v82.2h16.3V39.8l20.3 43.5h14.9V1.1h-16.3zM151.7 15v18h31.4v15.4h.1v18.4a15.8 15.8 0 01-15.4 17.4h-17c-14.5 0-15-14.1-15-14.1V54.4h15.9v12.4s.1 3.1 4.1 3.1h7.5s4-.1 4-3.1V48.4h-31.4V11.8S136.4.6 150.1.6H172s11.3.5 11.3 10.8v15.3h-15.9V15h-15.7zM46 43.3a50.4 50.4 0 00-4.4-3.5s1-.9 1.9-1.3c.9-.5 2.8-1.6 3.6-2.5 1.9-2 1.9-5.1 1.9-5.1s.8-6.9-.2-18.9C47.8.3 35.3 1.1 35.3 1.1H0v82.2h35.2s5.5 0 9.6-3.5 4.1-10.1 4.5-18c.4-9.6-.5-16-3.3-18.5zM34.1 65.9L32 67.8H15.8V48h15.3s3 .2 3 2.7v15.2zm0-34.4L32 33.4H15.8V16.2h15.3s3 .2 3 2.7v12.6z" fill="#000"/>
</svg>
