<svg fill="none" xmlns="http://www.w3.org/2000/svg" viewBox="0 0 529 117">
  <path fill-rule="evenodd" clip-rule="evenodd" d="M58.4473.6819c32.1264 0 58.1697 25.8698 58.1697 57.7817 0 31.9122-26.0433 57.7824-58.1697 57.7824-32.1265 0-58.17-25.8702-58.17-57.7824 0-31.9119 26.0435-57.7817 58.17-57.7817zm.2248 9.8759c26.6932 0 48.3319 21.6392 48.3319 48.3326 0 26.6932-21.6387 48.3326-48.3319 48.3326-26.693 0-48.332-21.6394-48.332-48.3326 0-26.6934 21.639-48.3326 48.332-48.3326zm-19.7839 10.166c1.7075-.9613 3.3647-.2335 3.3821 1.4409l.19 18.3266h33.5191l.095-17.7568c.006-1.1251.7993-2.6005 2.245-1.9074 28.2986 13.5682 31.6606 55.9519.7963 74.6488-2.8053 1.6994-2.9496-.9979-2.958-1.5502l-.2717-17.9211-33.7091.2849v18.0417c0 1.441-1.2662 2.7162-2.416 2.1738-31.7298-14.9713-31.4378-58.572-.8727-75.7812zm43.5634 11.7658c14.0938 17.1646 15.2157 34.5545.1899 52.2254l-.1899-52.2254zm-46.715.4281c-14.0938 17.1646-15.2157 34.5545-.1899 52.2253l.1899-52.2253zm6.267 16.807h34.1839V67.956H42.0036V49.7247z" fill="#666"/>
  <path fill-rule="evenodd" clip-rule="evenodd" d="M230.93 42.5438c0-13.2576-9.903-21.7341-24.816-21.7341H175.57v76.0697h33.168c15.033 0 24.936-8.6936 24.936-22.2775 0-6.955-3.698-13.4753-10.38-17.6047 5.727-3.3688 7.636-9.7805 7.636-14.4534zm-35.077 8.1506V37.6537h8.471c3.818 0 6.323 2.7169 6.204 6.8465-.119 3.6946-2.625 6.1942-6.204 6.1942h-8.471zm0 29.1237V66.3428h11.215c3.46 0 6.204 2.8255 6.204 6.9549 0 3.9124-2.744 6.5204-6.204 6.5204h-11.215zm118.355-20.9736c0-23.4729-14.555-39.1214-36.389-39.1214-21.953 0-36.628 15.6485-36.628 39.1214 0 23.473 14.675 39.1217 36.628 39.1217 21.834 0 36.389-15.6487 36.389-39.1217zm-52.496 0c0-12.1711 6.442-20.4301 16.107-20.4301 9.425 0 15.629 8.259 15.629 20.4301 0 12.1712-6.204 20.539-15.629 20.539-9.665 0-16.107-8.3678-16.107-20.539zm60.132 14.0188c-.478 15.1052 11.215 25.1029 29.231 25.1029 17.658 0 29.35-9.2369 29.35-23.7989 0-18.474-13.363-22.4949-28.515-23.9077-6.443-.7607-9.187-3.1514-9.187-6.5203 0-4.3468 3.102-6.9549 7.994-6.9549 4.891 0 8.113 3.2601 7.755 7.8242H377.8c.477-14.8879-10.499-24.8855-27.441-24.8855-16.703 0-27.919 9.237-27.919 24.125 0 15.8659 13.005 22.2774 26.01 23.1467 4.176.326 11.573.7609 11.573 6.955 0 4.3469-3.699 6.8464-9.187 6.8464-5.727 0-9.545-3.26-9.425-7.9329h-19.567zm65.74-13.91c0 23.3642 14.555 38.9041 36.269 38.9041 15.391 0 31.379-8.5849 34.004-30.2105h-19.925c-1.551 8.259-6.92 12.0625-13.959 12.0625-9.545 0-15.868-8.3677-15.868-20.8649 0-12.7143 6.323-21.1908 15.748-21.1908 7.04 0 11.812 3.3688 13.96 11.1931h19.805c-2.386-20.3214-18.97-29.1237-33.765-29.1237-21.714 0-36.269 15.6485-36.269 39.2302zm120.025 7.4983v30.4278h20.64V20.8097h-20.64v27.4938h-18.851V20.8097h-20.64v76.0697h20.64V66.4516h18.851z" fill="#000"/>
</svg>
