<svg fill="none" xmlns="http://www.w3.org/2000/svg" viewBox="0 0 366 86">
  <path d="M42.9 10.3c-4.8.1-9.4 1.1-13.7 3l5.7 10c2.5-1.1 5.4-1.7 8.1-1.7.9 0 1.7.1 2.6.3 10.8.8 19.5 12 18.8 22.7-.9 11.8-10.3 19.1-21.4 19.7h-2.1c-7.3-1.6-13.3-4.6-16.9-11.5L12 32.2a33 33 0 0027.6 43.4l3.3.1a33.3 33.3 0 0032.9-32.6 33.4 33.4 0 00-31.2-32.9l-1.7.1zm0 75C19.7 85.3.5 66.3.5 43.2.5 31.8 5 21.5 12.4 13.9l20.2 34.9c.9 1.6 2.2 3 3.8 4.2 1.8 1.1 4 1.8 6.2 1.8h.3c8.2.3 13.9-8.6 11.1-15.8a11.8 11.8 0 00-11.1-7.7l-2 .1c-3.6.4-7.1 3.4-8.7 6.6l-16-27.7a42.4 42.4 0 0169.1 32.9c0 23-19 42.1-42.4 42.1zM150.8 48.1l-6.5-11a12 12 0 00-.4 3.3v30.2h11.6V56.3l-4.7-8.2zM219.6 45.9l6.2 10.7v14h-.1v.1h-13.1V33.9l7 12zM219.6 40.1l6.2 10.6v-6.9c0-5 8.5-5.4 8.5 0v26.8h7.8v.1h6.7V43.8c0-5 8.5-5.4 8.5 0v26.9h13.1V43.1c0-14.9-18.8-17.7-25.6-8.3-4.2-5.8-12.9-7-19-3.6v-1.8h-12.3l6.1 10.7zM292.5 53l-14.3-24.7v42.3h11.6v-1.7a20.6 20.6 0 0029.5-18.5A20.6 20.6 0 00289.8 32V15h-11.6v7.4l14.5 25a7 7 0 016.1-3.7 6.7 6.7 0 010 13.4 6.6 6.6 0 01-6.3-4.1zM339 53.4L329.5 37a20.6 20.6 0 102.1-2.2l7.4 12.5a6.9 6.9 0 016.1-3.8 6.7 6.7 0 010 13.4 6 6 0 01-6.1-3.5zM189.2 60a6.6 6.6 0 004-5h13.5c-2 8.3-8.8 14.7-17.4 15.8l-2.6.1A20.6 20.6 0 01170 38.4l10.6 18.1c1.1 2.4 3.3 4 6.1 4 .8.1 1.7-.1 2.5-.5z" fill="#000"/>
  <path d="M189.2 30.1l-2.6-.1c-5.5 0-10.7 2.4-14.4 6.2L182 53v-1h25l.1-1.7a20.5 20.5 0 00-17.9-20.2zm0 16.9H180c.3-4 3-6 6.6-6 .9 0 1.8.2 2.6.6 2.2.9 3.8 2.5 4.1 5.5h-4.1V47zM150.8 42.3l-4.9-8.3a10 10 0 014.9-3.2c1.1-.4 2.2-.5 3.3-.5h9.4v10.8h-2.6a5 5 0 00-5.3 5.3v4.1l-4.8-8.2zM110.4 53L96 28.3v42.3h11.6v-1.7a20.7 20.7 0 0029.6-18.5A20.7 20.7 0 00107.6 32V15H96v7.4l14.5 25a7 7 0 016.1-3.7 6.7 6.7 0 010 13.4 6.6 6.6 0 01-6.2-4.1z" fill="#000"/>
</svg>
