<svg fill="none" xmlns="http://www.w3.org/2000/svg" viewBox="0 0 667 117">
  <path d="M49 0h618v60a57 57 0 01-57 57H0V49A48 48 0 0149 0zm603 15H49a33 33 0 00-33 34v53h594a42 42 0 0042-42V15zM252 79h60l3-1 1-3v-6l-1-2-3-1h-60v13zm0-28h60l3-1 1-3v-5l-1-3-3-1h-60v13zm-7-28h67a19 19 0 0119 19v5c0 5-2 8-4 11 2 4 4 7 4 11v6a19 19 0 01-19 19h-75V23h8zM37 93V42c0-5 2-10 6-14 3-3 8-5 14-5h72v15H57l-4 1-1 3v9h77v15H52v27H37zm497-55h-77l-2 1-1 3v5l1 3 2 1h62a19 19 0 0118 18v6a19 19 0 01-18 19h-79V79h79l2-1 1-3v-6l-1-2-2-1h-62a19 19 0 01-18-19v-5a19 19 0 0118-19h77v15zM431 94h-74a19 19 0 01-19-19V42a19 19 0 0119-19h74v15h-74l-2 1-1 3v6l1 2 2 1h74v15h-74l-2 1-1 2v6l1 3 2 1h74v15zm114-71h95v15h-39v55h-16V38h-40V23zM229 94h-74a19 19 0 01-19-19V42a19 19 0 0119-19h74v15h-74l-2 1-1 3v6l1 2 2 1h74v15h-74l-2 1-1 2v6l1 3 2 1h74v15z" fill="#000"/>
</svg>
