<svg fill="none" xmlns="http://www.w3.org/2000/svg" viewBox="0 0 167 37">
  <g clip-path="url(#clip0)">
    <path d="M104.5-.1c-2.5 0-5.1 1-7.3 3l-13 11a12 12 0 01-7.8 3h-4.2L83 7.7l-3.1-5c-1.1-2-3.3-3-5.7-3H45.5c-2.6 0-5.2 1.2-7.4 3L23.2 15.3c-2 1.7-4.4 3-7.5 3H11L33-.1H10.5L0 36.7h17.7l4.8-16.4 8.3 13.4c1.2 2.2 3.4 3 5.7 3h16.1L41.2 18.3l18-15.1 14 22.4-3 11h18.1l3.2-11L120 1.7l-10 35h4.7c2.9 0 5.5-1.3 7.5-3l14.7-12.3c2.6-2.2 5-3.1 7.6-3.1h4.6l-22 18.4h17.5c8.5 0 16-3.3 17.7-9.4 1.7-5.5-3.1-8.7-8.3-9-.2 0-.2 0 0 0 5.2-.6 11-4.3 12.5-9.2 1.7-5.4-1.8-9.2-7.7-9.2-2.7 0-5.3 1-7.7 3.1L138 14c-1.7 1.4-4.3 3-7.6 3H126l20-17h-41.6z" fill="#000"/>
  </g>
  <defs>
    <clipPath id="clip0">
      <path fill="#fff" d="M0 0h167v37H0z"/>
    </clipPath>
  </defs>
</svg>
