<svg fill="none" xmlns="http://www.w3.org/2000/svg" viewBox="0 0 401 437">
  <path fill-rule="evenodd" clip-rule="evenodd" d="M209.8 380.1c0-2.5-2-4.6-4.5-4.6a4.6 4.6 0 00-1.7 9l1.7.2a4.6 4.6 0 004.5-4.6zm-16 0c0-2.5-2-4.6-4.6-4.6a4.6 4.6 0 00-1.7 9l1.7.2a4.6 4.6 0 004.6-4.6zM3 392.5h9.6v34.7H35v7.7H3v-42.4zm38.8 0H75v7.5h-24v9h22.1v7.4H51.1v11h25.2v7.5H41.8v-42.4zm73 0h13.8V435h-9v-35.3l-8.6 35.3h-9.3l-8.2-35.3h-.2v35.3h-8.8v-42.4h13.7l8.2 33.4h.2l8.2-33.4zm53.3 24.6h-20V435h-9.4v-42.4h32.2v7.5H148v9.5h20v7.6zm29 19c-6.1 0-21.8-2.6-21.8-22.4 0-19.9 15.7-22.3 21.8-22.3 5.9 0 21.7 2.4 21.7 22.3 0 19.8-15.8 22.3-21.7 22.3zm0-37.1c-5.2 0-12.4 2.9-12.4 14.7 0 11.8 7.2 14.7 12.4 14.7 5 0 12.2-2.9 12.2-14.7 0-11.8-7.3-14.7-12.2-14.7zm39.3 35.9H227v-42.4h23c12.1 0 14.2 8.4 14.2 12 0 4.6-2.5 8.6-6.8 10.1 3.6 1.6 5.7 2.7 5.7 10.7 0 6.1 0 7.7 1.9 8.4v1.2h-10.5c-.6-2.1-1-4.2-1-8.6 0-5.7-.3-8-7.4-8h-9.7v16.6zm0-35v11.3h11c5 0 7.5-1.7 7.5-6 0-2-1.2-5.2-6.7-5.2h-11.8zm56.3 35H273v-42.4h20c15.5 0 18.5 12.2 18.5 20.2 0 9-3.8 22.2-18.8 22.2zm-1.2-35h-9.1v27.7h9.1c7.8 0 10.3-7.2 10.3-14.3 0-12.4-6.3-13.3-10.3-13.3zm28.3-7.4H353v7.5h-24v9h22v7.4h-22v11h25v7.5h-34.4v-42.4zm51.7 42.4H362v-42.4H385c12.2 0 14.3 8.4 14.3 12 0 4.6-2.5 8.6-6.9 10.1 3.7 1.6 5.8 2.7 5.8 10.7 0 6.1 0 7.7 1.9 8.4v1.2h-10.5c-.6-2.1-1-4.2-1-8.6 0-5.7-.4-8-7.4-8h-9.7v16.6zm0-35v11.3h11c5 0 7.5-1.7 7.5-6 0-2-1.2-5.2-6.7-5.2h-11.8zM169.4 126.3s20 4.7 19.5 26.9c0 0-7.5 1.1-15.3-9.2-5.5-7.3-5-15.5-4.2-17.7zm-6.9 3.4s-3.2 18.7 19.9 30.5c0 0-2 6.3-10.3 6.3-7.5 0-22.5-12.6-9.6-36.8zm17.8 176.3h-8s-33.4-50-33.4-89.5c0-37.4 15.4-45.8 24.6-45.8 9.1 0 10.3 9.2 9.3 18.5-3.8 42.2.6 82.3 7.5 116.8zm46-179.7s-20 4.7-19.5 26.9c0 0 7.4 1.1 15.3-9.2 5.5-7.3 5-15.5 4.2-17.7zm6.8 3.4s3 18.7-19.8 30.5c0 0 1.9 6.3 10.3 6.3 7.4 0 22.3-12.6 9.5-36.8zm-17.7 176.3h8s33.4-50 33.4-89.5c0-37.4-15.5-45.8-24.6-45.8-9.2 0-10.3 9.2-9.4 18.5 3.8 42.2-.5 82.3-7.4 116.8zm-26.5 6.7h17.9l-9 17.9-9-18z" fill="#000"/>
  <path fill-rule="evenodd" clip-rule="evenodd" d="M198 1l196.7 345.5h-170v19.9h-19v-31.1l9-16 9.5 16.5 5.5-11.4-2.7-11.8h133.2l-115-201.9c-10.2 1.7-27.7 6.3-36.5 18.1 0 0-6.7 7.8-7 24H194c-.4-16.2-7-24-7-24-8.8-11.8-26.2-16.4-36.3-18.1L35.5 312.6h133.1l-2.6 11.8 5.3 11.4 9.5-16.6 9 16v31.2H171v-19.9H1L198 1zm0 26.9l-39.9 69.8c27.7 15.7 52 15.7 79.6-.2L198 28z" fill="#000"/>
  <path fill-rule="evenodd" clip-rule="evenodd" d="M179 98.5s6.4-7.8 20-7.6c13.5.1 20 8.7 20 8.7s-22.1 10.1-40-1.1z" fill="#000"/>
</svg>
