<svg fill="none" xmlns="http://www.w3.org/2000/svg" viewBox="0 0 232 62">
  <path fill-rule="evenodd" clip-rule="evenodd" d="M7.3 43.7h14l-.6 6.4H0l4.4-38.5h6.5l-3.6 32zM46.3 18H33.5l-1 9.1h11.2l-.7 6.5H31.8l-1.2 10h16.1l-.7 6.5H23.3l4.4-38.5H47l-.7 6.4M71.2 20.9c-2-1.8-5.3-3.4-7.7-3.4a4.2 4.2 0 00-4.3 4.2c0 5.6 11.3 6.3 11.3 17.1 0 6.2-3.5 11.8-10.4 11.8-4.4 0-7.7-1.4-10.5-3.6l1-6.8a15 15 0 008.8 4c2.6 0 4.4-1.7 4.4-4.3 0-6.3-11.4-7-11.4-17.2 0-6.7 4.7-11.6 10.9-11.6 3 0 6.1 1 8.8 3L71 21" fill="#000"/>
  <path fill-rule="evenodd" clip-rule="evenodd" d="M79 50.3c-1 8.5-5 11.9-12.2 10.9l.7-6.4c3.2 0 4.5-1.5 5-6.1l4.5-39h6.5L79 50.3zM112.1 29.2c0 8-4.8 14.3-11 14.3-5.2 0-8.9-4.6-8.9-11.2 0-7.7 5-14 11-14 5.2 0 9 4.5 9 11zM109.6 0c-1.6 0-3 1.6-3 3.7 0 2 1.4 3.7 3 3.7s3-1.7 3-3.7-1.4-3.7-3-3.7zm-9.2 0c-1.6 0-3 1.6-3 3.7 0 2 1.4 3.7 3 3.7s3-1.7 3-3.7-1.4-3.7-3-3.7zM119 28.6c0-10.3-6.2-17.5-15.2-17.5-10.5 0-18.2 9.1-18.2 21.6 0 10.6 6.6 18 15.6 18 10.3 0 17.8-8.8 17.8-22M142.8 18h-11.2l-1 9.2h9.7l-.8 6.5H130l-2 16.4h-6.5l4.3-38.5h17.9l-.8 6.4M171.4 29.2c0 8-4.8 14.3-11 14.3-5.2 0-8.8-4.6-8.8-11.2 0-7.7 5-14 11-14 5.1 0 8.8 4.5 8.8 11zm6.8-.6c0-10.3-6.2-17.5-15.2-17.5-10.5 0-18.2 9.1-18.2 21.6 0 10.6 6.6 18 15.6 18 10.3 0 17.8-8.8 17.8-22M189.8 18h3.2c3.3 0 5.2 1.9 5.2 5 0 2.8-1.8 5.5-6.3 5.5h-3.3l1.2-10.5zm-5.8-6.4L179.6 50h6.6l1.8-15.6h1.4c3.2 0 4 .8 6.6 7.8l2.9 7.8h7.2l-4.7-12.3c-.9-2.1-1.6-3.6-3.3-4.5v-.1c4.7-1 6.9-5.4 6.9-10 0-4.8-2.6-11.6-10.4-11.6H184M231 20.9c-2-1.8-5.3-3.4-7.6-3.4a4.2 4.2 0 00-4.4 4.2c0 5.6 11.4 6.3 11.4 17.1 0 6.2-3.6 11.8-10.5 11.8-4.4 0-7.7-1.4-10.4-3.6l1-6.8a15 15 0 008.7 4c2.6 0 4.4-1.7 4.4-4.3 0-6.3-11.3-7-11.3-17.2 0-6.7 4.6-11.6 10.8-11.6 3 0 6.1 1 8.8 3L231 21" fill="#000"/>
</svg>
