<svg fill="none" xmlns="http://www.w3.org/2000/svg" viewBox="0 0 1803 295">
  <g clip-path="url(#clip0)">
    <path fill-rule="evenodd" clip-rule="evenodd" d="M1515 12h-97l-21 84h48v195h83V96h43l23-94h-77l-2 10zm281 0l-74-12-3 12c-10-2-16-4-28-4-57 0-94 37-94 82 0 60 40 75 107 96 6 2 11 8 11 14 0 9-10 15-19 15-25 0-48-10-74-25l-21 81c27 11 57 24 100 24 59 0 102-40 102-94 0-42-25-70-75-85l-26-8c-8-3-14-7-14-15 0-7 9-14 25-14 19 0 39 9 62 19l21-86zm-552 81h20c22 0 32 11 32 24 0 17-11 27-31 27h-21V93zm87 111c32-21 48-51 48-89 0-34-14-63-39-82-24-17-52-21-86-21h-93l-21 84h21v195h83v-77h3l38 77h99l-53-87zM520 93c25 0 38 10 38 30 0 19-12 30-33 30h-5V93zm0 137c28 0 51-4 73-18 29-19 47-52 47-91 0-35-15-67-40-86-27-21-57-23-95-23h-69l-21 84h22v195h83v-61zM257 12h-82v112L108 12H21L0 96h21v195h82V155l82 136h72V12zm132 0h-83l-22 84h22v195h83V12zm590 169l22-92 21 92h-43zm80-169H921l-22 84h22l-58 195h90l9-37h78l9 37h91l-81-279zM761 93c25 0 39 10 39 30 0 19-13 30-34 30h-5V93zm0 137c28 0 51-4 73-18 30-19 48-52 48-91 0-35-15-67-41-86-27-21-57-23-94-23h-69l-21 84h21v195h83v-61z" fill="#000"/>
  </g>
  <defs>
    <clipPath id="clip0">
      <path fill="#fff" d="M0 0h1803v295H0z"/>
    </clipPath>
  </defs>
</svg>
