<svg fill="none" xmlns="http://www.w3.org/2000/svg" viewBox="0 0 234 47">
  <g clip-path="url(#clip0)" fill-rule="evenodd" clip-rule="evenodd" fill="#000">
    <path d="M39.67 23.42a7.88 7.88 0 10-15.75 0 7.88 7.88 0 0015.75 0"/>
    <path d="M42.04 18.02c2.52 2.63 3.93 5.52 3.93 8.55 0 8.72-11.56 16.26-28.34 19.84-1.09.23-1.05.63 0 .6 21.05-.53 38.62-6.31 44.84-14.17 1.34-1.7.87-3.58-.08-4.75-3.52-4.38-10.57-8.1-19.78-10.63-.52-.14-.89.23-.57.56M20.98 29.36c.52.14.89-.23.57-.56-2.52-2.63-3.93-5.52-3.93-8.55 0-8.72 11.56-16.26 28.34-19.84 1.09-.23 1.05-.63 0-.6C24.91.34 7.34 6.12 1.12 13.98a3.7 3.7 0 00.08 4.76c3.52 4.37 10.57 8.1 19.78 10.62zM139.66 31.11l-10.4-18.46h-6.54l-10.4 18.46h-.02l-2.37 4.2h7.32l1.7-3.3h14.09l1.68 3.3h7.32l-2.37-4.2zM126 18.2l5.12 10.03h-10.24l5.12-10.03zM194.47 21.87H180.3v-9.22h-6.55v22.67h6.55v-9.2h14.17v9.2H201V12.65h-6.54v9.22M233.67 28.96c0-3.44-3.2-5-8.5-6.5-4.75-1.46-10.15-2.4-12.28-3.44-1.68-.81-1.74-3.28 5.17-3.28 2.68 0 7.11.45 7.11 2.36h7.55c0-4.43-7.03-6.14-14.75-6.14-5.85 0-13.6 1.55-13.6 6.4 0 5.45 15.7 7.06 19.85 8.88 1.56.66 1.3 2.76-1.6 3.87h-.03c-1.1.42-2.6.7-4.53.7-1.28 0-3.13-.2-4.6-.7h-.04c-1.34-.45-2.37-1.14-2.37-2.13h-7.59c0 .8.22 1.52.61 2.15h.01c2.29 3.65 10.33 4.44 14.46 4.44 7.96 0 12.78-1.88 14.46-4.44h.01c.44-.68.66-1.41.66-2.17zM109.94 28.96c0-3.44-3.2-5-8.5-6.5-4.75-1.46-10.14-2.4-12.28-3.44-1.68-.81-1.74-3.28 5.18-3.28 2.67 0 7.1.45 7.1 2.36H109c0-4.43-7.03-6.14-14.75-6.14-5.86 0-13.6 1.55-13.6 6.4 0 5.45 15.7 7.06 19.84 8.88 1.56.66 1.3 2.76-1.6 3.87h-.02c-1.12.42-2.61.7-4.54.7-1.28 0-3.12-.2-4.6-.7h-.04c-1.34-.45-2.37-1.14-2.37-2.13h-7.58a4 4 0 00.6 2.15h.02c2.28 3.65 10.33 4.44 14.45 4.44 7.97 0 12.78-1.88 14.46-4.44h.01c.44-.68.66-1.41.66-2.17M156.08 15.78c5.32 0 7.4 2.07 7.4 3.2h7.25c0-1.47-2.53-7.02-14.65-7.02-11.32 0-15.57 6.17-15.57 11.81 0 2.55.87 5.21 2.87 7.36h.01c2.42 2.6 6.5 4.44 12.69 4.44 7.94 0 11.77-2.39 13.46-4.44h.01a4.58 4.58 0 001.18-2.56h-7.26c0 .72-.85 1.84-2.87 2.54h-.05c-1.12.38-2.6.64-4.47.64a9.7 9.7 0 01-3.55-.64h-.04a7.66 7.66 0 01-4.93-7.34c0-4.64 3.54-8 8.52-8"/>
  </g>
  <defs>
    <clipPath id="clip0">
      <path fill="#fff" d="M0 0h234v47H0z"/>
    </clipPath>
  </defs>
</svg>
