<svg fill="none" xmlns="http://www.w3.org/2000/svg" viewBox="0 0 182 47">
  <path d="M10.01 21.78h5.62c.11.79.56 1.43 1.34 1.92.8.5 1.75.74 2.85.74a5 5 0 002.76-.68c.7-.46 1.04-1.04 1.04-1.75 0-.64-.27-1.14-.82-1.5a8.39 8.39 0 00-2.8-.96l-3.04-.6c-2.14-.4-3.76-1.18-4.85-2.3a6.04 6.04 0 01-1.64-4.37 6.5 6.5 0 012.57-5.38c1.73-1.35 3.95-2.02 6.67-2.02 2.88 0 5.14.64 6.78 1.94a6.41 6.41 0 012.53 5.24h-5.45a2.5 2.5 0 00-1.12-1.98 4.6 4.6 0 00-2.68-.73c-1.03 0-1.86.22-2.5.65-.62.43-.93 1-.93 1.7 0 .63.27 1.13.8 1.52.56.37 1.44.68 2.67.93l3 .56c2.3.44 3.97 1.2 5.05 2.28a5.9 5.9 0 011.6 4.36c0 2.3-.88 4.15-2.65 5.52-1.77 1.37-4.15 2.05-7.15 2.05-2.97 0-5.32-.63-7.04-1.89a6.27 6.27 0 01-2.6-5.25zM39.08 28.52h-5.9V5.28h5.9v23.24zM43.48 5.28h9.43c3.54 0 6.27 1 8.22 2.98 1.95 1.98 2.93 4.82 2.93 8.5 0 3.7-.98 6.6-2.95 8.66-1.95 2.06-4.68 3.1-8.2 3.1h-9.43V5.28zm5.9 4.76v13.7h2.76c1.93 0 3.4-.58 4.4-1.75 1-1.17 1.51-2.9 1.51-5.21 0-2.17-.51-3.84-1.54-5-1.03-1.16-2.49-1.74-4.37-1.74H49.4zM83.62 23.75v4.77H67.7V5.28h15.92v4.76H73.61v4.63h9.42V19H73.6v4.74h10.01zM113.82 28.52h-5.2V14h-.12l-5.74 14.26h-3.39l-5.73-14.26h-.13v14.5h-5.2V5.29h6.83L101 20.2h.13l5.86-14.93h6.83v23.24zM10.62 37.2h1.85c.03.25.18.46.43.62.26.17.58.25.94.25.37 0 .67-.08.9-.23.23-.15.35-.34.35-.57a.55.55 0 00-.27-.5 2.75 2.75 0 00-.92-.3l-1-.2a2.92 2.92 0 01-1.6-.76 1.98 1.98 0 01-.53-1.43c0-.74.28-1.32.84-1.77.57-.44 1.3-.66 2.2-.66.94 0 1.68.21 2.22.64.54.42.82 1 .83 1.71h-1.79a.82.82 0 00-.37-.65 1.5 1.5 0 00-.88-.23c-.34 0-.6.07-.82.2-.2.15-.3.33-.3.57 0 .2.09.37.26.5.18.12.47.22.87.3l1 .19c.74.14 1.3.39 1.65.74.35.35.52.83.52 1.43 0 .76-.29 1.36-.87 1.81-.58.45-1.36.68-2.34.68-.98 0-1.75-.21-2.31-.62a2.06 2.06 0 01-.86-1.72zm8.4-4.84h1.89v1.29h1.03v1.38h-1.03v2.41c0 .4.22.6.66.6.15 0 .27 0 .37-.03v1.34c-.23.04-.5.06-.82.06-.75 0-1.29-.12-1.61-.37-.32-.24-.48-.65-.48-1.22v-2.8h-.78v-1.37h.78v-1.29zm7.14 2.48a1 1 0 00-.72.3c-.2.18-.3.43-.33.73h2.1c-.02-.3-.13-.55-.32-.74a.99.99 0 00-.73-.29zm1.09 2.75h1.69c-.1.6-.39 1.07-.88 1.42-.5.36-1.11.53-1.86.53-.92 0-1.64-.26-2.15-.8a3.01 3.01 0 01-.78-2.18c0-.93.26-1.67.77-2.22a2.74 2.74 0 012.1-.83c.86 0 1.55.26 2.06.79.51.52.77 1.23.77 2.1v.54h-3.88v.11c0 .35.1.63.3.84.22.22.5.32.83.32.25 0 .47-.05.65-.16.19-.12.31-.27.38-.46zm5.94-2.75a1 1 0 00-.72.3c-.2.18-.3.43-.33.73h2.1c-.02-.3-.13-.55-.32-.74a.99.99 0 00-.73-.29zm1.09 2.75h1.69c-.1.6-.39 1.07-.88 1.42-.5.36-1.11.53-1.86.53-.92 0-1.64-.26-2.16-.8a3.01 3.01 0 01-.77-2.18c0-.93.26-1.67.77-2.22a2.74 2.74 0 012.1-.83c.86 0 1.55.26 2.06.79.51.52.77 1.23.77 2.1v.54h-3.88v.11c0 .35.1.63.3.84.22.22.5.32.83.32.25 0 .47-.05.65-.16.18-.12.31-.27.38-.46zm3.22 1.81v-5.75h1.82v1.09h.04c.21-.78.66-1.18 1.35-1.18.2 0 .35.03.48.08v1.6a1.6 1.6 0 00-.6-.11c-.4 0-.7.1-.9.32-.2.22-.31.52-.31.93v3.02H37.5zm5.05 0v-5.75h1.87v5.75h-1.87zm1.62-6.48a.95.95 0 01-.69.26.96.96 0 01-.68-.26.87.87 0 01-.28-.65c0-.26.1-.48.28-.65a.96.96 0 01.68-.27c.28 0 .5.09.69.27.18.17.27.38.27.65 0 .26-.1.47-.27.65zm1.94 6.48v-5.75h1.82v1.08h.04c.14-.38.37-.68.67-.88.3-.2.67-.31 1.1-.31.65 0 1.14.19 1.48.57.35.38.53.91.53 1.6v3.7h-1.88v-3.3c0-.33-.07-.59-.23-.77-.16-.18-.39-.27-.69-.27a.9.9 0 00-.7.3c-.18.2-.27.46-.27.78v3.25h-1.87zm10.11-1.43c.34 0 .6-.12.8-.37.19-.26.29-.61.29-1.08 0-.45-.1-.82-.3-1.08a.92.92 0 00-.79-.41c-.33 0-.6.13-.8.4-.18.27-.28.63-.28 1.1 0 .46.1.81.28 1.07.2.25.46.37.8.37zm-.06 3.6a3.5 3.5 0 01-1.96-.5c-.5-.33-.77-.76-.82-1.3h1.81c.05.18.16.31.35.42.18.1.4.15.67.15.35 0 .62-.08.8-.25a.9.9 0 00.29-.7v-1.06h-.04c-.11.3-.33.56-.65.75a2.1 2.1 0 01-1.1.28c-.7 0-1.25-.26-1.67-.76-.4-.5-.61-1.2-.61-2.1 0-.91.2-1.63.6-2.15.42-.52.99-.79 1.71-.79.4 0 .77.1 1.07.31.31.2.53.47.66.8h.04v-1.02h1.86v5.69a1.9 1.9 0 01-.83 1.62c-.55.4-1.27.61-2.18.61zm7.58-2.17v-5.75h1.87v5.75h-1.87zm1.62-6.48a.94.94 0 01-.68.26.96.96 0 01-.69-.26.87.87 0 01-.27-.65c0-.26.09-.48.27-.65a.96.96 0 01.69-.27c.27 0 .5.09.68.27.18.17.28.38.28.65 0 .26-.1.47-.28.65zm1.94 6.48v-5.75h1.83v1.08h.03c.15-.38.37-.68.67-.88.3-.2.68-.31 1.11-.31.64 0 1.13.19 1.48.57.35.38.52.91.52 1.6v3.7h-1.87v-3.3c0-.33-.08-.59-.24-.77-.15-.18-.38-.27-.69-.27a.9.9 0 00-.7.3c-.18.2-.26.46-.26.78v3.25H67.3zm10.08-4c0-.58.23-1.04.68-1.38.46-.34 1.1-.5 1.88-.5a3 3 0 011.86.52c.46.34.7.81.7 1.4H80.8c0-.2-.09-.37-.24-.49a.98.98 0 00-.62-.18.98.98 0 00-.55.14c-.14.1-.2.21-.2.36 0 .23.2.4.64.48l1.2.25c.58.12 1 .3 1.25.56.26.24.39.58.39 1.02 0 .6-.25 1.07-.74 1.43-.5.35-1.14.53-1.95.53-.83 0-1.48-.17-1.96-.52a1.83 1.83 0 01-.77-1.42h1.82c.02.21.12.38.28.5.17.12.39.18.66.18.25 0 .45-.04.59-.13.14-.09.22-.2.22-.36a.33.33 0 00-.15-.28 1.2 1.2 0 00-.48-.18l-1.09-.22c-.56-.12-.99-.33-1.28-.62a1.5 1.5 0 01-.43-1.1zm9.1 2.8c.3 0 .54-.08.75-.24a.75.75 0 00.32-.62v-.4l-1.05.07a1 1 0 00-.56.19.5.5 0 00-.2.41c0 .18.06.32.2.43.14.1.32.16.54.16zm-.66 1.29c-.55 0-1-.17-1.38-.5a1.6 1.6 0 01-.56-1.25c0-.54.2-.95.6-1.25.4-.3.97-.48 1.72-.52l1.35-.08v-.33c0-.22-.07-.4-.22-.52a.89.89 0 00-.6-.2 1 1 0 00-.6.18.65.65 0 00-.28.45h-1.69c.03-.6.28-1.07.76-1.42a3.11 3.11 0 011.9-.54c.77 0 1.4.18 1.86.54.47.36.7.83.7 1.4v3.95h-1.82v-.82h-.04c-.15.29-.38.5-.7.67a2.2 2.2 0 01-1 .24zm5.7-.09v-4.37h-.76v-1.34h.76v-.33c0-.58.16-1 .48-1.26.31-.27.84-.4 1.58-.4.35 0 .65.03.9.08v1.16a2.78 2.78 0 00-.4-.03c-.49 0-.73.18-.73.53v.25h1.12v1.34H93.4v4.37h-1.88zm7.08-4.56a1 1 0 00-.73.3c-.2.18-.3.43-.33.73h2.1c-.02-.3-.12-.55-.31-.74a.99.99 0 00-.73-.29zm1.08 2.75h1.69c-.1.6-.38 1.07-.88 1.42-.49.36-1.11.53-1.86.53-.92 0-1.63-.26-2.15-.8a3.01 3.01 0 01-.78-2.18c0-.93.26-1.67.77-2.22a2.74 2.74 0 012.1-.83c.86 0 1.55.26 2.06.79.52.52.77 1.23.77 2.1v.54h-3.88v.11c0 .35.1.63.31.84.21.22.49.32.82.32.25 0 .47-.05.65-.16.19-.12.31-.27.38-.46zm3.7-5.23h1.87v1.29h1.04v1.38h-1.04v2.41c0 .4.22.6.66.6.16 0 .28 0 .37-.03v1.34c-.22.04-.5.06-.82.06-.74 0-1.28-.12-1.6-.37-.33-.24-.48-.65-.48-1.22v-2.8h-.79v-1.37h.78v-1.29zm5.32 9.16H108V40.1l.41.01c.3 0 .52-.04.66-.12.15-.08.23-.2.26-.37v-.1-.12l-1.93-5.75h2.06l1.05 4.35h.03l1.03-4.35h1.98l-1.84 5.74c-.25.77-.6 1.32-1.06 1.64-.46.33-1.12.5-1.96.5z" fill="#000"/>
  <circle cx="146.72" cy="23.06" r="20.48" stroke="#000" stroke-width="5.15"/>
  <path d="M146.59 7.47l-26.28 36.07 26.28-13.4L173 43.55 146.59 7.47z" fill="#000"/>
</svg>
