<svg width="220" height="80" viewBox="0 0 220 80" fill="none" xmlns="http://www.w3.org/2000/svg">
<path d="M1 1H219V79H1V1Z" fill="white"/>
<path d="M0 0H220V80H0V0ZM46.641 20.906C44.541 20.478 42.368 20.146 40.112 19.905C37.9149 19.6725 35.7074 19.5524 33.498 19.545C31.1556 19.5322 28.8153 19.6906 26.496 20.019C24.119 20.351 21.92 20.966 19.898 21.872C17.876 22.773 16.242 24.069 14.997 25.765C13.754 27.455 13.116 29.652 13.078 32.353C13.134 35.384 13.861 37.729 15.248 39.387C16.6244 41.0355 18.4096 42.2934 20.425 43.035C22.4314 43.7913 24.5013 44.3673 26.61 44.756C28.667 45.127 30.393 45.539 31.787 45.992C33.174 46.451 33.901 47.187 33.957 48.209C33.897 49.184 33.208 49.885 31.887 50.307C30.569 50.725 28.984 50.934 27.131 50.918C24.827 50.918 22.494 50.691 20.136 50.254C17.8574 49.8394 15.6274 49.192 13.481 48.322V58.562C16.1607 59.1867 18.8733 59.6608 21.606 59.982C24.22 60.285 26.97 60.435 29.86 60.429C32.8726 60.4594 35.8761 60.095 38.794 59.345C41.733 58.595 44.187 57.251 46.145 55.322C48.106 53.39 49.122 50.681 49.199 47.189C49.144 44.185 48.423 41.857 47.028 40.217C45.636 38.577 43.911 37.382 41.852 36.631C39.8486 35.8888 37.7808 35.3337 35.675 34.973C33.612 34.62 31.887 34.231 30.497 33.801C29.102 33.367 28.38 32.659 28.322 31.666C28.363 30.83 28.751 30.228 29.488 29.852C30.228 29.481 31.1 29.253 32.106 29.165C33.0231 29.0804 33.9441 29.0453 34.865 29.06C39.246 29.122 43.171 29.783 46.642 31.042L46.641 20.906V20.906ZM50.251 20.255L59.523 59.781H76.245L82.558 33.96H82.676L89.331 59.781H105.711L115.272 20.255H101.675L96.781 45.51H96.67L90.466 20.255H75.849L69.48 45.51H69.366L64.529 20.255H50.251V20.255ZM135.682 28.748L140.002 41.717H131.186L135.565 28.748H135.682V28.748ZM111.445 59.781H126.634L129.08 51.23H141.933L144.554 59.781H158.619L148.285 20.255H122.932L113.358 59.781H111.445ZM187.637 39.735V50.27C187.17 50.43 186.651 50.53 186.079 50.567C185.506 50.602 184.945 50.614 184.394 50.608C182.376 50.583 180.752 50.106 179.537 49.174C178.312 48.244 177.433 47.012 176.892 45.473C176.342 43.938 176.079 42.252 176.087 40.416C176.138 36.812 177.287 34.081 179.535 32.225C181.78 30.372 184.821 29.437 188.66 29.429C190.824 29.446 192.832 29.667 194.681 30.094C196.527 30.524 198.007 31.057 199.12 31.698V21.046C197.837 20.7375 196.543 20.4766 195.24 20.264C193.889 20.045 192.342 19.876 190.592 19.755C188.84 19.636 186.738 19.575 184.275 19.575C179.972 19.575 176.033 20.311 172.451 21.782C168.875 23.255 165.996 25.466 163.833 28.407C161.668 31.355 160.562 35.034 160.498 39.449C160.553 44.151 161.629 48.054 163.73 51.164C165.834 54.277 168.672 56.605 172.247 58.146C175.814 59.695 179.826 60.462 184.275 60.462C187.368 60.466 190.242 60.296 192.879 59.956C195.53 59.6148 198.15 59.0644 200.715 58.31V39.735H187.637V39.735Z" fill="black"/>
<path d="M207.727 23.8731C208.313 23.8731 208.83 23.9151 208.83 24.5251C208.83 25.1731 207.923 25.0661 207.263 25.0661H206.517V23.8731H207.727ZM208.23 25.7611C208.88 25.7381 209.532 25.3901 209.532 24.4491C209.532 23.4361 208.738 23.1741 207.859 23.1741H205.804V27.9751H206.511V25.7611H207.415L208.662 27.9751H209.47L208.23 25.7611V25.7611ZM207.482 21.9711C209.467 21.9711 211.121 23.5241 211.121 25.5421C211.121 27.5521 209.471 29.1171 207.482 29.1171C205.496 29.1171 203.841 27.5521 203.841 25.5421C203.843 23.5241 205.496 21.9711 207.482 21.9711ZM207.482 29.8121C209.904 29.8121 211.827 27.9231 211.827 25.5431C211.827 23.1681 209.907 21.2791 207.482 21.2791C205.054 21.2791 203.136 23.1681 203.136 25.5431C203.141 27.9211 205.055 29.8121 207.482 29.8121Z" fill="white"/>
</svg>
