<svg fill="none" xmlns="http://www.w3.org/2000/svg" viewBox="0 0 597 113">
  <path d="M106.9.6L92.6 35.9H70.7l-30.4 76.5H.5l30.1-76.5H9.1L22.8.6h84.1zM382.3 36.1h-21.7L330 112.5h-39.9l30-76.4h-21.5L312.4.6h83.8l-13.9 35.5zM238.8.6s2.9 16.2 3.5 24.7c0 .4.4.2.6.2C247.8 16.5 262 .6 262 .6h46l-52 57.9 15.9 54h-40.2s-3.4-20-4.2-30.3c-.2-.4-.6-.1-.8-.2l-4.9 7.1-19.4 23.4h-50.2l60.8-63L198.8.6h40zM178 31.1h-33.7l-4 10.6h30.4L159.2 71h-30.6l-4.5 11h34.7l-12 30.5H72L116.3.6h74.1L178 31.1z" fill="#000"/>
  <path fill-rule="evenodd" clip-rule="evenodd" d="M566.8.6c11.4.4 23.6 5.3 28.4 16.6 4.6 12.4-1.2 24.8-7.5 34.9a47.5 47.5 0 01-26 16.8c-.7.5-.2 1.2.2 1.7l1.4 1.8 1.7 3.5 9.6 36.7H531l-3.4-35.5c-.1-.2-.6-.2-.7 0l-14.3 35.5h-41L516 .6c.2-.6 50.8 0 50.8 0zm-9.2 34.7c.4 4.9-2.1 9.6-6.2 12.5a23 23 0 01-13.9 2.3l7.5-18.7c4.6.2 10.7-.8 12.6 3.9zm-90.3 77.2h-42.2l1.7-13.7h-29.7l-8.8 13.7h-42.2L428.1.6h44.3l-5.1 111.9zm-31-74.5l-6 33.8-15.5.1L435.3 38h1z" fill="#000"/>
</svg>
